<svg width="16" height="16" viewBox="0 0 16 16" fill="none" xmlns="http://www.w3.org/2000/svg">
<path fill-rule="evenodd" clip-rule="evenodd" d="M12.226 5.63765C12.226 5.12 11.8025 4.69647 11.2848 4.69647C11.0213 4.69647 10.786 4.8 10.6166 4.96941L8.4613 7.13412L6.306 4.97882C6.13659 4.8 5.9013 4.69647 5.63777 4.69647C5.12012 4.69647 4.69659 5.12 4.69659 5.63765C4.69659 5.90117 4.80012 6.13647 4.96953 6.30588L7.12483 8.46117L4.96953 10.6165C4.80012 10.7859 4.69659 11.0212 4.69659 11.2847C4.69659 11.8024 5.12012 12.2259 5.63777 12.2259C5.9013 12.2259 6.13659 12.1224 6.306 11.9529L8.4613 9.79765L10.6166 11.9529C10.786 12.1224 11.0213 12.2259 11.2848 12.2259C11.8025 12.2259 12.226 11.8024 12.226 11.2847C12.226 11.0212 12.1225 10.7859 11.9531 10.6165L9.79777 8.46117L11.9531 6.30588C12.1225 6.13647 12.226 5.90117 12.226 5.63765ZM8.4613 0.931763C4.3013 0.931763 0.931885 4.30117 0.931885 8.46117C0.931885 12.6212 4.3013 15.9906 8.4613 15.9906C12.6213 15.9906 15.9907 12.6212 15.9907 8.46117C15.9907 4.30117 12.6213 0.931763 8.4613 0.931763ZM8.4613 14.1082C5.346 14.1082 2.81424 11.5765 2.81424 8.46117C2.81424 5.34588 5.346 2.81412 8.4613 2.81412C11.5766 2.81412 14.1084 5.34588 14.1084 8.46117C14.1084 11.5765 11.586 14.1082 8.4613 14.1082Z" fill="#5C7080"/>
</svg>
