<svg width="16" height="16" viewBox="0 0 16 16" fill="none" xmlns="http://www.w3.org/2000/svg">
<path fill-rule="evenodd" clip-rule="evenodd" d="M8.0025 7.00268C7.45335 7.00268 7.00406 7.45385 7.00406 8.00528C7.00406 8.5567 7.45335 9.00787 8.0025 9.00787C8.55164 9.00787 9.00094 8.5567 9.00094 8.00528C9.00094 7.45385 8.55164 7.00268 8.0025 7.00268ZM15.99 7.9752C15.99 7.96517 15.99 7.96517 15.99 7.95515V7.94512C15.99 7.93509 15.99 7.93509 15.99 7.92507C15.99 7.91504 15.99 7.91504 15.99 7.90502C15.97 7.76465 15.9101 7.64434 15.8203 7.54408C15.3111 6.87234 14.702 6.28081 14.083 5.73941C12.7551 4.56637 11.2374 3.58383 9.56006 3.19282C8.58159 2.9522 7.6131 2.94217 6.63463 3.13266C5.74602 3.31313 4.89735 3.67407 4.08861 4.12523C2.84056 4.83708 1.69236 5.80959 0.693916 6.90242C0.514197 7.11297 0.334477 7.31349 0.164743 7.53406C-0.0549142 7.82481 -0.0549142 8.17572 0.164743 8.46647C0.673947 9.13821 1.283 9.72974 1.90203 10.2711C3.22995 11.4442 4.74758 12.4267 6.42496 12.8177C7.39345 13.0483 8.37192 13.0584 9.35039 12.8578C10.239 12.6774 11.0877 12.3164 11.8964 11.8653C13.1445 11.1534 14.2927 10.1809 15.2911 9.08808C15.4708 8.88756 15.6605 8.67702 15.8303 8.45644C15.9201 8.35618 15.98 8.22585 16 8.09551C16 8.08548 16 8.08548 16 8.07546C16 8.06543 16 8.06543 16 8.05541V8.04538C16 8.03535 16 8.03535 16 8.02533C16 8.0153 16 8.00528 16 7.99525C16 7.98522 15.99 7.98522 15.99 7.9752ZM8.0025 11.0131C6.34509 11.0131 5.00718 9.66958 5.00718 8.00528C5.00718 6.34097 6.34509 4.99749 8.0025 4.99749C9.65991 4.99749 10.9978 6.34097 10.9978 8.00528C10.9978 9.66958 9.65991 11.0131 8.0025 11.0131Z" fill="#5C7080"/>
</svg>
